<svg xmlns="http://www.w3.org/2000/svg" width="14.493" height="14.46" viewBox="0 0 14.493 14.46">
  <g id="ブログの投稿_編集アイコン素材_2" data-name="ブログの投稿、編集アイコン素材 2" transform="translate(0 -0.583)">
    <path id="Path_4" data-name="Path 4" d="M12.73,65.95v-.006L11,67.669v4.975a.047.047,0,0,1-.045.045H1.774a.049.049,0,0,1-.047-.045V63.457a.049.049,0,0,1,.047-.045h5.04l1.01-1.01.716-.712h0l0,0H1.774A1.775,1.775,0,0,0,0,63.457v9.187a1.774,1.774,0,0,0,1.774,1.771h9.185a1.773,1.773,0,0,0,1.771-1.771V68.709l0-2.763Z" transform="translate(0 -59.373)" fill="#4b4b4b"/>
    <path id="Path_5" data-name="Path 5" d="M371.21,1.675c-.746-.746-1.48-1.221-1.64-1.062a.106.106,0,0,0-.014.018L368.384,1.8l-.147.146h0l0,0a15.74,15.74,0,0,1,2.7,2.7l1.322-1.322a.076.076,0,0,0,.018-.014C372.432,3.156,371.957,2.422,371.21,1.675Z" transform="translate(-357.811 0)" fill="#4b4b4b"/>
    <path id="Path_6" data-name="Path 6" d="M124.676,79.469l3.613-.915,5.371-5.371a15.329,15.329,0,0,0-2.7-2.7l-5.371,5.371Zm1.414-3.451a.81.81,0,0,0,.235.61.842.842,0,0,0,1.083.072.993.993,0,0,0,.107-.083A.849.849,0,0,0,127.5,77.8a.806.806,0,0,0,.6.231.248.248,0,0,1,.041,0l-.093.093-1.931.49-.6-.6.49-1.931Z" transform="translate(-121.147 -67.922)" fill="#4b4b4b"/>
  </g>
</svg>
